<svg width="265" height="72" viewBox="0 0 265 72" fill="none" xmlns="http://www.w3.org/2000/svg">
<path d="M4.97854 71.0583C4.29184 70.7158 3.74821 70.2307 3.34764 69.6029C3.00429 68.975 2.83262 68.3472 2.83262 67.7194C2.83262 67.0916 3.00429 66.5779 3.34764 66.1784C3.51931 65.9501 3.7196 65.8074 3.9485 65.7503C4.23462 65.7503 4.32046 65.893 4.20601 66.1784C4.03433 67.0345 4.43491 67.8335 5.40772 68.5755C6.38054 69.3175 7.26752 69.8026 8.06867 70.0309C8.92704 70.2021 9.78541 70.2878 10.6438 70.2878C12.4177 70.2878 13.9914 70.0309 15.3648 69.5172C17.4249 68.8323 19.4564 67.4055 21.4592 65.2366C23.5193 63.1249 25.4363 60.7562 27.2103 58.1308C28.6981 55.8478 30.1574 53.308 31.588 50.5113C33.0186 47.7146 34.4492 44.8323 35.8798 41.8644C34.7353 41.7503 33.3333 41.6362 31.6738 41.522C30.0143 41.4079 28.2976 41.3508 26.5236 41.3508C24.2346 41.3508 22.0315 41.5505 19.9142 41.9501C17.7969 42.2925 16.2804 43.0345 15.3648 44.176C14.907 44.8038 14.6781 45.4887 14.6781 46.2307C14.6781 46.4019 14.6781 46.5731 14.6781 46.7444C14.7353 46.9156 14.7926 47.0868 14.8498 47.258C14.8498 47.3151 14.8498 47.3722 14.8498 47.4293C14.907 47.4293 14.9356 47.4578 14.9356 47.5149C14.9356 47.629 14.8498 47.6861 14.6781 47.6861C14.392 47.6861 14.2203 47.5434 14.1631 47.258C14.1059 47.0868 14.0486 46.8585 13.9914 46.5731C13.9342 46.2878 13.9056 46.0024 13.9056 45.717C13.9056 44.918 14.0773 44.1474 14.4206 43.4055C15.3362 41.5791 16.7668 40.3234 18.7124 39.6385C20.6581 38.9536 22.7754 38.6112 25.0644 38.6112C27.1817 38.6112 29.299 38.7824 31.4163 39.1249C33.5336 39.4673 35.3076 39.7812 36.7382 40.0666C38.6266 36.4138 40.5722 32.8181 42.5751 29.2794C44.6352 25.7408 46.8669 22.5731 49.2704 19.7765C51.6738 16.9798 54.3348 14.8395 57.2532 13.3555C54.4492 13.0131 51.5594 12.5565 48.5837 11.9857C45.6652 11.3579 43.2046 10.8728 41.2017 10.5303C39.9428 10.302 38.5122 10.1593 36.9099 10.1023C35.3076 9.98811 33.6194 9.93103 31.8455 9.93103C28.6981 9.93103 25.5508 10.1308 22.4034 10.5303C19.2561 10.8728 16.7382 11.4721 14.8498 12.3282C11.5308 13.8121 8.66953 15.8668 6.26609 18.4923C3.86266 21.0606 2.66094 24.2854 2.66094 28.1665C2.66094 29.7646 2.91845 31.1344 3.43348 32.2759C4.00572 33.3603 4.72103 34.1879 5.5794 34.7586C6.55222 35.3294 7.55365 35.6147 8.58369 35.6147C9.84263 35.6147 11.1302 35.2438 12.4464 34.5018C13.7625 33.7027 14.907 32.5612 15.8798 31.0773C16.3376 30.3353 16.7668 29.2509 17.1674 27.824C17.6252 26.3971 17.8541 24.9417 17.8541 23.4578C17.8541 22.6587 17.7682 21.8882 17.5966 21.1463C17.4821 20.4043 17.2246 19.7479 16.824 19.1772C16.7096 18.9489 16.6524 18.8347 16.6524 18.8347C16.6524 18.6635 16.7382 18.5779 16.9099 18.5779C17.1388 18.5779 17.3391 18.7206 17.5107 19.0059C17.7969 19.4055 18.083 20.0333 18.3691 20.8894C18.7124 21.6885 18.9413 22.4304 19.0558 23.1153C19.113 23.4578 19.1416 23.8002 19.1416 24.1427C19.1989 24.4851 19.2275 24.8276 19.2275 25.17C19.2275 26.3115 19.0844 27.4816 18.7983 28.6801C18.5122 29.8216 18.0544 30.8775 17.4249 31.8478C16.5093 33.3888 15.279 34.5589 13.7339 35.3579C12.1888 36.0999 10.5866 36.4709 8.92704 36.4709C7.61087 36.4709 6.35193 36.214 5.15021 35.7004C3.37625 34.8442 2.06009 33.6171 1.20172 32.019C0.400572 30.4209 0 28.6801 0 26.7967C0 25.541 0.143062 24.2854 0.429185 23.0297C0.772532 21.717 1.23033 20.4614 1.80257 19.2628C2.77539 17.151 4.12017 15.2961 5.83691 13.698C7.55365 12.0999 9.27038 10.8442 10.9871 9.93103C13.8484 8.39001 16.7096 7.30559 19.5708 6.67776C22.4893 6.04994 25.4363 5.73603 28.412 5.73603C30.8727 5.73603 33.3619 5.90726 35.8798 6.2497C38.3977 6.59215 40.9442 7.07729 43.5193 7.70512C46.4378 8.39001 49.4421 9.16052 52.5322 10.0167C53.6767 10.3591 55.0501 10.7301 56.6524 11.1296C58.2546 11.5291 59.8569 11.8145 61.4592 11.9857C61.6881 11.9857 61.8884 11.9857 62.0601 11.9857C62.2318 11.9287 62.432 11.9001 62.6609 11.9001C63.2332 11.9001 63.8627 11.9857 64.5493 12.157C65.6366 12.0999 66.6953 11.9001 67.7253 11.5577C68.7554 11.2152 69.5851 10.5874 70.2146 9.6742C70.4435 9.33175 70.5579 9.01784 70.5579 8.73246C70.5579 8.44709 70.5293 8.19025 70.4721 7.96195C70.4149 7.67658 70.4721 7.44828 70.6438 7.27705C70.7582 7.1629 70.9013 7.10583 71.073 7.10583C71.3591 7.10583 71.588 7.27705 71.7596 7.6195C71.8169 7.79073 71.8455 8.0761 71.8455 8.47563C71.8455 8.64685 71.8455 8.84661 71.8455 9.07491C71.8455 9.24614 71.7883 9.41736 71.6738 9.58858C71.2732 10.7301 70.5007 11.6433 69.3562 12.3282C68.2117 12.956 67.0672 13.3555 65.9227 13.5268C65.4649 13.5838 64.9499 13.6409 64.3777 13.698C63.8627 13.698 63.319 13.698 62.7468 13.698C62.289 13.698 61.8026 13.698 61.2875 13.698C60.7725 13.698 60.2575 13.6694 59.7425 13.6124C57.8541 14.4685 55.8798 16.0951 53.8197 18.4923C51.0157 21.8026 48.6123 25.3983 46.6094 29.2794C44.6638 33.1035 42.8326 36.9845 41.1159 40.9227C41.917 41.0369 42.7182 41.151 43.5193 41.2652C44.3205 41.3222 45.093 41.3508 45.8369 41.3508C47.382 41.3508 48.7554 41.151 49.9571 40.7515C50.0715 40.352 50.2718 39.8098 50.5579 39.1249C50.9013 38.3829 51.216 37.8407 51.5021 37.4982C52.4177 36.2426 53.3333 35.6147 54.2489 35.6147C54.9928 35.6147 55.3648 35.9857 55.3648 36.7277C55.3648 37.1843 55.1073 37.8121 54.5923 38.6112C54.1917 39.1249 53.7053 39.61 53.133 40.0666C52.618 40.5232 52.0744 40.8656 51.5021 41.0939C51.1016 41.893 50.8154 42.7491 50.6438 43.6623C50.4721 44.5755 50.3863 45.4316 50.3863 46.2307C50.3863 47.4863 50.5865 48.4851 50.9871 49.2271C51.0443 49.2842 51.073 49.3983 51.073 49.5696C51.073 49.7408 50.9585 49.8549 50.7296 49.912C50.5579 49.9691 50.3863 49.912 50.2146 49.7408C49.4707 48.8276 49.0987 47.4863 49.0987 45.717C49.0987 44.2901 49.3562 42.8918 49.8712 41.522C48.6123 42.0357 46.8383 42.2925 44.5494 42.2925C43.9199 42.2925 43.2618 42.2925 42.5751 42.2925C41.9456 42.2354 41.2589 42.1784 40.515 42.1213C39.2561 44.918 37.9113 47.7146 36.4807 50.5113C35.1073 53.308 33.505 55.9619 31.6738 58.4732C29.671 61.2699 27.4106 63.7812 24.8927 66.0071C22.3748 68.2331 19.5136 69.9168 16.309 71.0583C14.535 71.6861 12.4177 72 9.95708 72C8.98426 72 8.06867 71.9144 7.2103 71.7432C6.35193 71.629 5.60801 71.4007 4.97854 71.0583Z" fill="black"/>
<path d="M58.1914 64.0381C56.1313 64.0381 54.7007 63.4388 53.8995 62.2402C53.0984 61.0416 52.6978 59.5291 52.6978 57.7027C52.6978 55.8193 52.9839 53.7646 53.5562 51.5386C54.1857 49.3127 54.901 47.1439 55.7021 45.0321C56.5605 42.9203 57.3616 41.0654 58.1055 39.4673C58.9067 37.8692 59.4503 36.7562 59.7364 36.1284C60.7665 33.9596 62.0254 31.5054 63.5133 28.7658C65.0583 26.0262 66.7751 23.2295 68.6635 20.3757C70.6091 17.522 72.6406 14.8109 74.7579 12.2426C76.9324 9.6742 79.1642 7.44828 81.4532 5.5648C83.7994 3.68133 86.117 2.39715 88.406 1.71225C89.0354 1.54102 89.6077 1.45541 90.1227 1.45541C91.0955 1.45541 91.8967 1.74079 92.5261 2.31153C93.2128 2.82521 93.5562 3.73841 93.5562 5.05113C93.5562 5.96433 93.3273 7.10583 92.8695 8.47563C92.1256 10.4732 90.8666 12.6992 89.0927 15.1534C87.3187 17.5505 85.23 20.0618 82.8266 22.6873C80.4231 25.2556 77.8766 27.7955 75.1871 30.3068C72.5548 32.8181 69.9796 35.1581 67.4618 37.327C64.9439 39.4958 62.7121 41.3508 60.7665 42.8918C60.2515 43.9762 59.7651 45.0321 59.3073 46.0595C58.9067 47.0868 58.5347 48.0856 58.1914 49.0559C58.0197 49.5696 57.7622 50.3401 57.4188 51.3674C57.0755 52.3948 56.7608 53.5363 56.4746 54.7919C56.1885 56.0476 56.0455 57.2461 56.0455 58.3876C56.0455 59.5291 56.2744 60.5279 56.7322 61.3841C57.19 62.1831 58.0197 62.5826 59.2214 62.5826C60.1942 62.5826 61.0812 62.2687 61.8824 61.6409C62.7407 61.0131 63.5133 60.3282 64.2 59.5862C66.6034 56.8466 68.7493 53.679 70.6377 50.0832C70.8666 49.6837 71.0383 49.484 71.1528 49.484C71.2672 49.484 71.3244 49.6552 71.3244 49.9976C71.3244 50.5113 71.21 51.0535 70.9811 51.6243C69.8938 53.6219 68.8924 55.3056 67.9768 56.6754C67.1184 58.0452 65.8595 59.5577 64.2 61.2128C63.456 61.9548 62.5691 62.6112 61.539 63.1819C60.5662 63.7527 59.4503 64.0381 58.1914 64.0381ZM61.7107 40.9227C63.4847 39.3817 65.5447 37.5553 67.8909 35.4435C70.2372 33.2747 72.6406 30.9631 75.1012 28.5089C77.5619 26.0547 79.8795 23.6005 82.054 21.1463C84.2858 18.692 86.2028 16.3805 87.8051 14.2117C89.4646 12.0428 90.5805 10.1593 91.1527 8.56124C91.6678 7.07729 91.9253 5.93579 91.9253 5.13674C91.9253 3.6528 91.2672 2.91082 89.951 2.91082C89.2071 2.91082 88.3201 3.1962 87.2901 3.76695C86.26 4.28062 85.3158 4.96552 84.4575 5.82164C83.0269 7.19144 81.3387 9.16052 79.3931 11.7289C77.5047 14.2402 75.5018 17.1225 73.3845 20.3757C71.2672 23.629 69.1785 27.025 67.1184 30.5636C65.1156 34.1023 63.313 37.5553 61.7107 40.9227Z" fill="black"/>
<path d="M73.2397 64.0381C71.4657 64.0381 70.1781 63.5244 69.377 62.497C68.6331 61.4697 68.2611 60.214 68.2611 58.7301C68.2611 56.8466 68.6331 54.7919 69.377 52.566C70.1781 50.3401 71.0937 48.2283 72.1238 46.2307C73.1538 44.176 73.9836 42.5779 74.6131 41.4364C75.872 39.3246 77.1309 38.0119 78.3899 37.4982C79.706 36.9845 81.3083 36.7277 83.1967 36.7277C82.6245 36.8989 81.8806 37.5838 80.965 38.7824C80.0494 39.9239 79.0766 41.3508 78.0465 43.063C77.0737 44.7753 76.1295 46.6302 75.2139 48.6278C74.3555 50.5684 73.6402 52.4804 73.068 54.3639C72.553 56.1903 72.2955 57.7598 72.2955 59.0725C72.2955 60.0428 72.4671 60.8419 72.8105 61.4697C73.211 62.0975 73.8119 62.4114 74.6131 62.4114C75.2997 62.4114 76.1009 62.1546 77.0165 61.6409C77.9321 61.0702 78.7618 60.3853 79.5058 59.5862C82.0236 56.7895 84.0551 53.736 85.6002 50.4257C87.2025 47.0583 88.9764 43.7194 90.9221 40.409C92.181 38.2973 93.4399 36.9845 94.6989 36.4709C96.0151 35.9572 97.6173 35.7004 99.5058 35.7004C98.9335 35.8716 98.161 36.585 97.1881 37.8407C96.2153 39.0392 95.1853 40.5517 94.098 42.3781C93.068 44.2045 92.0952 46.1736 91.1796 48.2854C90.264 50.3401 89.4914 52.3377 88.862 54.2782C88.2897 56.2188 88.0036 57.874 88.0036 59.2438C88.0036 60.157 88.1753 60.9275 88.5186 61.5553C88.9192 62.126 89.4914 62.4114 90.2354 62.4114C90.9221 62.4114 91.7232 62.126 92.6388 61.5553C93.5544 60.9845 94.3841 60.3282 95.1281 59.5862C96.4442 58.1593 97.646 56.5898 98.7332 54.8775C99.8205 53.1653 100.908 51.3389 101.995 49.3983C102.167 49.17 102.31 49.0559 102.424 49.0559C102.653 49.0559 102.768 49.2271 102.768 49.5696C102.768 49.8549 102.71 50.0832 102.596 50.2545C101.566 52.1379 100.479 54.0214 99.3341 55.9049C98.1896 57.7884 96.7876 59.5577 95.1281 61.2128C94.2125 62.126 93.1252 62.8966 91.8663 63.5244C90.6646 64.0951 89.4628 64.2663 88.2611 64.0381C86.6588 63.7527 85.5143 63.1249 84.8276 62.1546C84.1409 61.1272 83.7976 59.9001 83.7976 58.4732C83.7976 57.3317 83.9693 56.1332 84.3126 54.8775C83.6259 55.9619 82.882 57.0464 82.0809 58.1308C81.3369 59.2152 80.4786 60.2426 79.5058 61.2128C78.7046 62.0119 77.7318 62.6968 76.5873 63.2675C75.5 63.7812 74.3842 64.0381 73.2397 64.0381Z" fill="black"/>
<path d="M103.914 64.0381C102.311 64.0381 101.138 63.5244 100.394 62.497C99.6504 61.4126 99.2784 60.0999 99.2784 58.5589C99.2784 58.1023 99.307 57.6457 99.3643 57.1891C99.4787 56.6754 99.5932 56.1617 99.7076 55.648C100.337 53.365 101.31 50.8252 102.626 48.0285C103.999 45.1748 105.316 42.635 106.575 40.409C107.318 39.1534 108.005 38.2687 108.635 37.7551C109.264 37.1843 109.951 36.7848 110.695 36.5565C111.439 36.2711 112.326 35.9572 113.356 35.6147C113.642 35.5006 113.928 35.415 114.214 35.3579C114.5 35.3008 114.815 35.2438 115.158 35.1867C114.014 36.3282 112.841 37.698 111.639 39.2961C110.494 40.8942 109.235 43.0916 107.862 45.8882C107.118 47.3722 106.374 49.0274 105.63 50.8537C104.944 52.6801 104.343 54.3924 103.828 55.9905C103.313 57.5886 103.027 58.8442 102.969 59.7574C102.912 60.8419 103.055 61.6124 103.399 62.069C103.742 62.5256 104.2 62.7539 104.772 62.7539C105.745 62.7539 106.66 62.4114 107.519 61.7265C108.434 61.0416 109.236 60.3282 109.922 59.5862C111.181 58.1593 112.354 56.5898 113.442 54.8775C114.586 53.1653 115.702 51.3389 116.789 49.3983C116.961 49.17 117.104 49.0559 117.218 49.0559C117.447 49.0559 117.562 49.2271 117.562 49.5696C117.562 49.8549 117.504 50.0832 117.39 50.2545C116.36 52.1379 115.273 54.0214 114.128 55.9049C112.984 57.7884 111.582 59.5577 109.922 61.2128C109.178 61.9548 108.291 62.6112 107.261 63.1819C106.288 63.7527 105.173 64.0381 103.914 64.0381ZM114.386 30.3924C113.756 30.3924 113.213 30.1641 112.755 29.7075C112.354 29.2509 112.154 28.7087 112.154 28.0809C112.154 27.2818 112.469 26.5684 113.098 25.9405C113.785 25.3127 114.529 24.9417 115.33 24.8276C115.959 24.8276 116.474 25.0559 116.875 25.5125C117.333 25.912 117.562 26.4542 117.562 27.1391C117.562 27.8811 117.247 28.6231 116.617 29.365C115.988 30.0499 115.244 30.3924 114.386 30.3924Z" fill="black"/>
<path d="M137.122 64.1237C135.176 64.1237 133.774 63.4673 132.916 62.1546C132.057 60.7848 131.628 59.1011 131.628 57.1035C131.628 55.1058 131.972 53.1367 132.658 51.1962L133.517 48.7134L130.341 53.5933C129.54 54.849 128.481 56.2759 127.165 57.874C125.906 59.415 124.561 60.7562 123.13 61.8977C121.299 63.3817 119.64 64.1237 118.152 64.1237C116.721 64.1237 115.605 63.5244 114.804 62.3258C114.06 61.1272 113.688 59.6147 113.688 57.7883C113.688 56.5327 113.86 55.2771 114.203 54.0214C115.062 50.8252 116.378 47.9144 118.152 45.2889C119.926 42.6064 122.158 40.2949 124.847 38.3543C125.992 37.4982 127.451 36.8133 129.225 36.2996C130.999 35.7289 132.773 35.4435 134.547 35.4435C135.233 35.4435 135.92 35.5006 136.607 35.6147C137.293 35.7289 137.923 35.8716 138.495 36.0428C138.953 35.0155 139.468 33.874 140.04 32.6183C140.67 31.3627 141.271 30.1356 141.843 28.937C142.472 27.6813 142.987 26.654 143.388 25.8549C144.532 23.5149 145.963 20.7182 147.68 17.4649C149.396 14.2117 151.399 11.1867 153.688 8.39001C155.462 6.16409 157.494 4.22355 159.783 2.56837C162.129 0.856124 164.389 0 166.564 0C167.88 0 168.853 0.399524 169.482 1.19857C170.169 1.99762 170.512 2.9679 170.512 4.1094C170.512 5.13674 170.312 6.07848 169.911 6.9346C168.996 8.9893 167.537 11.1581 165.534 13.4411C163.588 15.7241 161.471 17.9501 159.182 20.1189C156.95 22.2307 154.947 24.1427 153.173 25.8549C151.685 27.2818 150.369 28.5375 149.225 29.6219C148.08 30.6492 147.022 31.6766 146.049 32.7039C145.076 33.7313 144.017 34.8728 142.873 36.1284C141.614 38.9822 140.441 41.8359 139.354 44.6897C138.323 47.5434 137.465 50.1974 136.778 52.6516C136.149 55.1058 135.834 57.1605 135.834 58.8157C135.834 61.1558 136.55 62.4114 137.98 62.5826C138.953 62.5826 139.869 62.2687 140.727 61.6409C141.585 61.0131 142.329 60.3282 142.959 59.5862C144.275 58.1593 145.477 56.5898 146.564 54.8775C147.651 53.1653 148.738 51.3389 149.826 49.3983C149.997 49.17 150.169 49.0559 150.341 49.0559C150.57 49.0559 150.684 49.2271 150.684 49.5696C150.684 49.8549 150.627 50.0832 150.512 50.2545C149.482 52.1379 148.366 54.0214 147.165 55.9049C146.02 57.7884 144.618 59.5577 142.959 61.2128C142.215 61.9548 141.356 62.6397 140.384 63.2675C139.411 63.8383 138.323 64.1237 137.122 64.1237ZM144.246 33.132C145.562 31.648 146.793 30.3353 147.937 29.1938C149.082 27.9952 150.484 26.5398 152.143 24.8276C153.746 23.2295 155.577 21.346 157.637 19.1772C159.754 17.0083 161.728 14.8109 163.56 12.585C165.448 10.3591 166.821 8.39001 167.68 6.67776C168.366 5.30797 168.71 4.19501 168.71 3.33889C168.71 1.91201 167.994 1.19857 166.564 1.19857C164.79 1.19857 162.93 2.02616 160.984 3.68133C159.096 5.27943 157.236 7.47682 155.405 10.2735C153.86 12.6706 152.401 15.2961 151.027 18.1498C149.654 20.9465 148.395 23.6576 147.251 26.283C146.106 28.9084 145.105 31.1914 144.246 33.132ZM119.954 61.4697C120.984 61.4697 122.215 60.7848 123.645 59.415C125.133 57.9881 126.65 56.2473 128.195 54.1926C129.797 52.0809 131.256 50.0262 132.572 48.0285C132.973 47.4578 133.488 46.5161 134.117 45.2033C134.804 43.8906 135.519 42.4923 136.263 41.0083C137.007 39.4673 137.637 38.126 138.152 36.9845C137.808 36.8704 137.465 36.8133 137.122 36.8133C136.836 36.8133 136.521 36.8133 136.178 36.8133C134.404 36.8133 132.63 37.2985 130.856 38.2687C129.139 39.1819 127.594 40.409 126.22 41.9501C124.275 44.0618 122.644 46.3448 121.328 48.7991C120.012 51.1962 119.096 53.308 118.581 55.1344C118.295 56.1617 118.152 57.2176 118.152 58.302C118.152 59.1581 118.266 59.9001 118.495 60.5279C118.781 61.1558 119.268 61.4697 119.954 61.4697Z" fill="black"/>
<path d="M149.224 63.5244C148.559 63.5244 148.227 63.2813 148.227 62.7953C148.227 62.3976 148.515 62.1325 149.091 61.9999L149.889 61.8674C150.819 61.6906 151.417 61.4255 151.683 61.072C151.993 60.6743 152.148 60.0115 152.148 59.0836V36.8133C152.148 36.018 152.015 35.4877 151.749 35.2226C151.528 34.9133 151.107 34.7144 150.487 34.6261L149.091 34.4272C148.515 34.383 148.227 34.14 148.227 33.6981C148.227 33.3446 148.582 33.1016 149.29 32.969C150.664 32.7481 151.705 32.3946 152.414 31.9086C153.167 31.4225 153.942 30.826 154.74 30.119C155.138 29.7213 155.471 29.5225 155.737 29.5225C156.135 29.5225 156.335 29.7876 156.335 30.3178V33.3004C156.335 33.6981 156.468 33.9633 156.733 34.0958C157.043 34.1842 157.376 34.0516 157.73 33.6981C159.502 32.019 161.053 30.8702 162.382 30.2515C163.755 29.6329 165.195 29.3236 166.702 29.3236C168.695 29.3236 170.29 30.0306 171.486 31.4446C172.682 32.8144 173.281 34.847 173.281 37.5424V59.0836C173.281 60.0115 173.413 60.6743 173.679 61.072C173.989 61.4255 174.61 61.6685 175.54 61.8011L177.002 61.9999C177.489 62.0883 177.733 62.3534 177.733 62.7953C177.733 63.2813 177.467 63.5244 176.936 63.5244H165.771C165.151 63.5244 164.841 63.2813 164.841 62.7953C164.841 62.3534 165.084 62.0883 165.572 61.9999L166.502 61.8674C167.433 61.7348 168.031 61.4697 168.296 61.072C168.607 60.6743 168.762 60.0115 168.762 59.0836V38.2715C168.762 36.1063 168.363 34.5819 167.565 33.6981C166.768 32.8144 165.638 32.3725 164.176 32.3725C162.759 32.3725 161.474 32.7923 160.322 33.6319C159.214 34.4272 158.328 35.5098 157.664 36.8796C156.999 38.2052 156.667 39.6855 156.667 41.3204V59.0836C156.667 60.0115 156.8 60.6743 157.066 61.072C157.376 61.4697 157.996 61.7127 158.926 61.8011L160.721 61.9999C161.208 62.0883 161.452 62.3313 161.452 62.729C161.452 63.2593 161.119 63.5244 160.455 63.5244H149.224Z" fill="black"/>
<path d="M191.936 64.1209C189.677 64.1209 187.639 63.3697 185.822 61.8674C184.05 60.3208 182.632 58.2219 181.569 55.5707C180.506 52.9195 179.974 49.959 179.974 46.6891C179.974 43.4193 180.506 40.4808 181.569 37.8738C182.632 35.2668 184.072 33.19 185.889 31.6434C187.705 30.0969 189.721 29.3236 191.936 29.3236C194.195 29.3236 196.211 30.0969 197.983 31.6434C199.8 33.19 201.24 35.2668 202.303 37.8738C203.366 40.4808 203.898 43.4193 203.898 46.6891C203.898 49.959 203.366 52.9195 202.303 55.5707C201.284 58.2219 199.866 60.3208 198.05 61.8674C196.233 63.3697 194.195 64.1209 191.936 64.1209ZM191.936 62.4639C196.544 62.4639 198.847 57.2056 198.847 46.6891C198.847 36.2168 196.544 30.9806 191.936 30.9806C187.329 30.9806 185.025 36.2168 185.025 46.6891C185.025 57.2056 187.329 62.4639 191.936 62.4639Z" fill="black"/>
<path d="M215.341 64.1209C213.791 64.1209 212.506 63.5907 211.487 62.5302C210.512 61.4255 210.025 59.6359 210.025 57.1614V32.3725C210.025 31.8423 209.759 31.5772 209.228 31.5772H207.3C206.592 31.5772 206.237 31.312 206.237 30.7818C206.237 30.4283 206.437 30.119 206.835 29.8539C208.297 28.8376 209.471 27.755 210.357 26.6061C211.243 25.4131 212.019 23.8002 212.683 21.7676C212.993 20.8397 213.37 20.3757 213.813 20.3757C214.3 20.3757 214.544 20.7292 214.544 21.4362V28.7934C214.544 29.412 214.854 29.7213 215.474 29.7213H219.794C220.503 29.7213 220.857 30.0306 220.857 30.6492C220.857 31.2678 220.503 31.5772 219.794 31.5772H215.474C214.854 31.5772 214.544 31.8865 214.544 32.5051V57.2277C214.544 58.1998 214.699 58.9731 215.009 59.5475C215.319 60.0778 215.895 60.3429 216.737 60.3429C217.667 60.3429 218.421 59.8789 218.996 58.951C219.617 58.0231 220.015 56.5207 220.193 54.4439C220.281 53.8253 220.569 53.516 221.057 53.516C221.588 53.516 221.854 53.8474 221.854 54.5102C221.721 57.9126 221.012 60.365 219.727 61.8674C218.487 63.3697 217.025 64.1209 215.341 64.1209Z" fill="black"/>
<path d="M235.53 64.1209C233.403 64.1209 231.498 63.4139 229.814 61.9999C228.131 60.5859 226.78 58.5975 225.761 56.0347C224.786 53.4276 224.299 50.4229 224.299 47.0205C224.299 43.5297 224.808 40.4588 225.827 37.8075C226.846 35.1563 228.242 33.0795 230.014 31.5772C231.786 30.0748 233.757 29.3236 235.928 29.3236C238.542 29.3236 240.647 30.4062 242.241 32.5714C243.881 34.6923 244.7 38.161 244.7 42.9774C244.7 44.4356 244.146 45.1647 243.039 45.1647H230.413C229.527 45.1647 229.083 45.6728 229.083 46.6891C229.083 51.3729 229.77 54.8858 231.144 57.2277C232.517 59.5696 234.267 60.7406 236.393 60.7406C238.077 60.7406 239.45 60.1441 240.514 58.951C241.577 57.758 242.441 55.7475 243.105 52.9195C243.238 52.4334 243.526 52.1904 243.969 52.1904C244.501 52.1904 244.7 52.6323 244.567 53.516C243.859 57.4487 242.729 60.2104 241.178 61.8011C239.628 63.3476 237.745 64.1209 235.53 64.1209ZM230.213 43.5077H236.925C239.052 43.5077 240.115 42.403 240.115 40.1936C240.115 37.3215 239.76 35.0679 239.052 33.433C238.343 31.7981 237.28 30.9806 235.862 30.9806C234.134 30.9806 232.672 31.9748 231.476 33.9633C230.324 35.9517 229.571 38.7796 229.216 42.4472C229.128 43.1542 229.46 43.5077 230.213 43.5077Z" fill="black"/>
<path d="M255.098 64.1209C254.079 64.1209 252.994 63.9883 251.842 63.7232C250.69 63.5023 249.76 63.2151 249.051 62.8616C248.652 62.6406 248.453 62.265 248.453 61.7348L248.254 54.3114C248.254 53.5602 248.541 53.1846 249.117 53.1846C249.605 53.1846 249.937 53.5381 250.114 54.2451C250.867 57.3824 251.776 59.5255 252.839 60.6743C253.946 61.8232 255.276 62.3976 256.826 62.3976C258.111 62.3976 259.174 61.9116 260.016 60.9394C260.858 59.9231 261.279 58.5312 261.279 56.7638C261.279 54.9963 260.791 53.4276 259.817 52.0578C258.842 50.688 257.203 49.1857 254.899 47.5508C252.595 46.0042 250.912 44.4577 249.848 42.9111C248.785 41.3204 248.254 39.5971 248.254 37.7412C248.254 35.2226 249.14 33.19 250.912 31.6434C252.684 30.0969 255.032 29.3236 257.956 29.3236C258.842 29.3236 259.706 29.4341 260.548 29.655C261.389 29.8318 262.142 30.1411 262.807 30.583C263.206 30.8481 263.405 31.2016 263.405 31.6434L263.538 38.9343C263.538 39.5971 263.272 39.9285 262.741 39.9285C262.43 39.9285 262.209 39.8401 262.076 39.6634C261.943 39.4424 261.832 39.1773 261.744 38.868C260.858 35.9959 259.972 34.0074 259.086 32.9028C258.199 31.7539 257.114 31.1795 255.829 31.1795C254.677 31.1795 253.725 31.5772 252.972 32.3725C252.219 33.1679 251.842 34.1621 251.842 35.3551C251.842 36.9017 252.307 38.2494 253.238 39.3983C254.168 40.5471 255.851 41.9611 258.288 43.6402C260.503 45.2309 262.165 46.9542 263.272 48.8101C264.424 50.6218 265 52.6102 265 54.7753C265 57.6033 264.092 59.8789 262.275 61.6022C260.459 63.2813 258.067 64.1209 255.098 64.1209Z" fill="black"/>
</svg>
