<svg width="22" height="22" viewBox="0 0 22 22" fill="none" xmlns="http://www.w3.org/2000/svg">
<path d="M13.2837 8.71648C12.8639 8.29662 12.3656 7.96356 11.8171 7.73633C11.2686 7.5091 10.6807 7.39214 10.087 7.39214C9.49329 7.39214 8.9054 7.5091 8.35691 7.73633C7.80841 7.96356 7.31006 8.29662 6.89032 8.71648L2.32364 13.2842C1.476 14.1319 0.999875 15.2817 1 16.4805C1.00013 17.6792 1.47649 18.8289 2.3243 19.6765C3.17211 20.524 4.32192 21.0001 5.52079 21C6.71965 20.9999 7.86936 20.5235 8.71699 19.6758L9.14499 19.2705M8.71699 13.2842C9.13673 13.704 9.63509 14.0371 10.1836 14.2643C10.7321 14.4916 11.32 14.6085 11.9137 14.6085C12.5074 14.6085 13.0953 14.4916 13.6438 14.2643C14.1923 14.0371 14.6906 13.704 15.1103 13.2842L19.6757 8.71648C20.5235 7.8689 20.9999 6.71927 21 5.52048C21.0001 4.3217 20.524 3.17197 19.6764 2.32421C18.8287 1.47646 17.679 1.00013 16.4802 1C15.2813 0.999875 14.1315 1.47597 13.2837 2.32355L11.913 3.6048" stroke="#6D7084" stroke-width="2" stroke-linecap="round" stroke-linejoin="round"/>
</svg>
