<svg width="198" height="112" viewBox="0 0 198 112" fill="none" xmlns="http://www.w3.org/2000/svg">
<g clip-path="url(#clip0_740_711)">
<path d="M99.0002 1.2002C126.171 1.2002 150.71 7.43237 168.415 17.4471C186.155 27.4826 196.803 41.16 196.803 56.0002C196.803 70.8404 186.155 84.5178 168.415 94.5533C150.71 104.568 126.171 110.8 99.0002 110.8C71.8296 110.8 47.2904 104.568 29.5857 94.5533C11.8443 84.5178 1.19775 70.8404 1.19775 56.0002C1.19775 41.16 11.8443 27.4826 29.5857 17.4471C47.2904 7.43237 71.8296 1.2002 99.0002 1.2002Z" fill="#F8F8F8" fill-opacity="0.4" stroke="#6D7084" stroke-width="1.5"/>
<path d="M72.1103 51.8657C72.6852 49.0625 73.6816 42.7265 73.9881 40.5377V40.5761C74.0648 40.1153 74.1031 39.6161 74.1031 39.1937C74.1031 37.9265 73.7199 37.0817 72.3403 37.0817C72.2253 37.0817 72.0337 37.0433 72.072 36.7745C72.1103 36.4673 72.2253 36.1217 72.2636 35.8145C72.3019 35.5457 72.4936 35.4305 72.7235 35.3921C74.0265 35.5457 75.521 35.5841 76.939 35.5841C78.3569 35.5841 79.8898 35.5457 81.3844 35.3921C81.5377 35.3921 81.6526 35.5073 81.6143 35.7377C81.576 36.0449 81.461 36.3521 81.4227 36.6593C81.3844 36.9665 81.2311 37.0817 80.9245 37.0817C79.2383 37.0817 78.6252 38.6177 78.2036 40.4225C77.7054 42.6113 76.5941 48.9473 76.1725 51.7505L75.9043 53.6705C75.636 55.5905 75.7127 57.1265 78.8934 57.1265H79.3916C82.1508 57.1265 84.9101 54.4769 86.3663 51.5585C86.5579 51.1745 87.0561 50.9441 87.5543 50.9441C87.9376 50.9441 88.3591 50.9825 88.2441 51.2897L85.3316 58.4705C85.1783 58.7777 84.9101 58.9313 84.5652 58.9313C81.8443 58.8161 79.0467 58.7393 76.2492 58.7393C73.7582 58.7393 70.9606 58.8161 68.508 58.9313C68.393 58.9313 68.2397 58.8161 68.2397 58.6241L68.4697 57.5873C68.508 57.2801 68.6613 57.1265 68.9679 57.1265C70.6924 57.1265 71.3056 55.7441 71.6888 53.7857L72.1103 51.8657ZM108.435 51.5969C107.783 54.5537 105.139 59.4689 98.6241 59.4689C93.9488 59.4689 90.6914 57.6641 90.6914 53.0561C90.6914 52.3649 90.768 51.5585 90.9213 50.6753C91.0363 49.9841 91.1512 49.2545 91.3045 48.5249C91.8027 45.9521 92.3392 43.1105 92.7224 40.5377V40.5761C92.7991 40.1153 92.8374 39.6161 92.8374 39.1937C92.8374 37.9265 92.4542 37.0817 91.0746 37.0817C90.9596 37.0817 90.768 37.0433 90.8063 36.7745C90.8446 36.4673 90.9596 36.1217 90.9979 35.8145C91.0363 35.5457 91.2279 35.4305 91.4578 35.3921C92.7608 35.5457 94.2553 35.5841 95.6733 35.5841C97.0912 35.5841 98.6241 35.5457 100.119 35.3921C100.272 35.3921 100.387 35.5073 100.349 35.7377C100.31 36.0449 100.195 36.3521 100.157 36.6593C100.119 36.9665 99.9654 37.0817 99.6588 37.0817C97.9726 37.0817 97.3595 38.6177 96.9379 40.4225C96.6697 41.6513 96.1332 44.7617 95.635 47.5265L95.0984 50.4449C94.9835 51.1745 94.8685 52.0193 94.8685 52.8641C94.8685 55.2065 95.7116 57.3569 99.2373 57.3569C104.066 57.3569 105.867 53.2865 106.672 49.4849C107.285 46.4129 107.937 42.4577 108.166 40.5761C108.243 40.1921 108.281 39.6929 108.281 39.3473C108.281 37.9649 107.707 37.0817 105.599 37.0817C105.484 37.0817 105.292 37.0433 105.331 36.7745C105.369 36.4673 105.484 36.1217 105.522 35.8145C105.561 35.5457 105.752 35.4305 105.982 35.3921C107.285 35.5457 108.78 35.5841 110.198 35.5841C111.615 35.5841 113.148 35.5457 114.643 35.3921C114.796 35.3921 114.911 35.5073 114.873 35.7377C114.835 36.0449 114.72 36.3521 114.681 36.6593C114.643 36.9665 114.49 37.0817 114.183 37.0817C112.037 37.0817 110.964 38.5409 110.542 40.4225C110.159 42.0737 109.853 43.8785 109.546 45.7217C109.239 47.6417 108.895 49.6001 108.435 51.5969ZM112.592 58.8161C112.477 58.8161 112.324 58.7777 112.362 58.5089C112.4 58.2017 112.515 57.8561 112.554 57.5489C112.592 57.2417 112.745 57.1265 113.052 57.1265C114.7 57.1265 115.351 55.5905 115.773 53.7857C116.386 51.0209 117.727 43.3025 118.111 40.5377C118.187 40.1153 118.226 39.6161 118.226 39.1937C118.226 37.9265 117.842 37.0817 116.463 37.0817C116.348 37.0817 116.156 37.0433 116.195 36.7745C116.233 36.4673 116.348 36.1217 116.386 35.8145C116.424 35.5457 116.616 35.4305 116.846 35.3921C118.111 35.5457 119.567 35.5841 120.985 35.5841C122.403 35.5841 123.897 35.5457 125.354 35.3921C125.507 35.3921 125.622 35.5073 125.584 35.7377C125.545 36.0449 125.43 36.3521 125.392 36.6593C125.354 36.9665 125.2 37.0817 124.894 37.0817C123.208 37.0817 122.594 38.6177 122.173 40.4225C121.56 43.1873 120.218 50.9057 119.835 53.6705V53.6321C119.759 54.1313 119.72 54.6305 119.72 55.0913C119.72 56.3201 120.103 57.1265 121.483 57.1265C121.713 57.1265 121.79 57.2417 121.751 57.4721C121.713 57.7793 121.598 58.0865 121.56 58.3937C121.521 58.6625 121.33 58.7777 121.1 58.8161C119.759 58.7009 118.302 58.6241 116.884 58.6241C115.428 58.6241 114.01 58.7009 112.592 58.8161ZM134.535 58.8545C132.658 58.7393 130.856 58.6241 128.902 58.6241C127.599 58.6241 125.989 58.7009 124.457 58.8161C124.342 58.8161 124.188 58.7393 124.227 58.5089C124.265 58.2017 124.38 57.8561 124.418 57.5489C124.457 57.2417 124.61 57.1265 124.916 57.1265C126.564 57.1265 127.254 55.6289 127.637 53.7857C128.289 50.9057 129.592 43.2641 129.975 40.5377V40.5761C130.052 40.1153 130.09 39.6161 130.09 39.1937C130.09 37.9265 129.707 37.0817 128.327 37.0817C128.212 37.0817 128.021 37.0433 128.059 36.7745C128.097 36.4673 128.212 36.1217 128.251 35.8145C128.289 35.5457 128.48 35.4305 128.71 35.3921C129.822 35.5073 131.01 35.5457 132.198 35.5457C133.117 35.5457 134.305 35.5073 135.264 35.4689C136.413 35.4305 137.601 35.3921 138.828 35.3921C145.457 35.3921 148.753 40.3073 148.753 45.3761C148.753 51.8273 144.001 59.4305 134.535 58.8545ZM131.853 53.6705V53.6321C131.776 54.0929 131.738 54.5153 131.738 54.9377C131.738 56.2433 132.236 57.0881 134.497 57.1265H134.727C140.782 57.4337 144.384 50.8289 144.384 45.1457C144.384 41.0369 142.392 37.0817 138.023 37.0817C135.685 37.0817 134.612 38.4641 134.191 40.4225C133.577 43.1489 132.236 50.8673 131.853 53.6705Z" fill="#6D7084"/>
<path d="M72.3914 88.6402C72.2764 89.0242 71.9315 89.0242 69.9388 89.0626H69.1723C68.8274 89.0626 68.6358 88.9858 68.4825 88.6786C68.2909 87.949 63.9988 75.1234 61.2395 68.941C60.2815 73.0882 58.9785 81.2674 58.5953 84.0706C58.5569 84.493 58.4803 85.453 58.4803 85.3378C58.4803 86.6434 59.0168 87.5266 61.1629 87.5266C61.3928 87.5266 61.4695 87.6418 61.4311 87.8722C61.3928 88.1794 61.2779 88.4866 61.2395 88.7938C61.2012 89.0626 61.0096 89.1778 60.7797 89.2162C59.4 89.101 57.9055 89.0242 56.4875 89.0242C55.1079 89.0242 53.5367 89.101 52.1188 89.2162C52.0038 89.2162 51.8505 89.1394 51.8888 88.909C51.9271 88.6018 52.0421 88.2562 52.0804 87.949C52.1188 87.6418 52.272 87.5266 52.5786 87.5266C54.7247 87.5266 55.7977 86.1442 56.2193 84.1858C56.8324 81.4594 58.1354 73.741 58.5186 70.9378C58.5569 70.5538 58.5953 70.1698 58.5953 69.7858C58.5953 68.4034 58.0971 67.4818 55.951 67.4818C55.836 67.4818 55.6444 67.4434 55.6828 67.1746C55.7211 66.8674 55.836 66.5218 55.8744 66.2146C55.9127 65.9458 56.1043 65.8306 56.3342 65.7922C57.024 65.869 58.7869 65.9842 60.6264 65.9842C61.8527 65.9842 63.194 65.9458 64.267 65.7922C64.7269 65.7922 64.9568 65.9074 65.0718 66.2146L71.0501 82.6114C71.6249 79.5394 72.7746 72.8962 73.0429 70.9378V70.9762C73.1195 70.5538 73.1579 70.1314 73.1579 69.7474C73.1579 68.365 72.583 67.4818 70.4753 67.4818C70.3603 67.4818 70.1687 67.4434 70.207 67.1746C70.2453 66.8674 70.3603 66.5218 70.3986 66.2146C70.4369 65.9458 70.6286 65.8306 70.8585 65.7922C72.1615 65.9458 73.656 65.9842 75.074 65.9842C76.4919 65.9842 78.0248 65.9458 79.5194 65.7922C79.6727 65.7922 79.7877 65.9074 79.7493 66.1378C79.711 66.445 79.596 66.7522 79.5577 67.0594C79.5194 67.3666 79.3661 67.4818 79.0595 67.4818C76.8751 67.4818 75.8021 68.8642 75.4189 70.8226C74.2309 75.853 73.0429 83.6482 72.3914 88.6402ZM78.2297 79.5778C78.2297 72.3202 83.8248 65.4082 92.0258 65.4082C97.6592 65.4082 102.028 69.0178 102.028 75.6994C102.028 82.8802 96.5096 89.869 88.3852 89.869C82.4833 89.869 78.2297 86.221 78.2297 79.5778ZM91.8342 67.0978C85.8176 67.0978 82.7516 75.1618 82.7516 80.4994C82.7516 84.6466 84.3996 88.1026 88.4618 88.1026C94.4401 88.1026 97.4676 80.077 97.4676 74.6626C97.4676 70.477 95.7814 67.0978 91.8342 67.0978ZM105.815 65.7922H105.853C106.16 65.7922 106.505 65.7922 106.888 65.8306C109.072 65.9458 111.793 66.0994 113.977 66.0994C116.43 66.0994 119.458 65.9458 122.408 65.7922C122.715 65.7538 122.983 65.9842 123.098 66.2146L124.746 72.205C124.784 72.5122 124.286 72.7042 123.788 72.7042C123.328 72.7042 122.983 72.5506 122.792 72.1666C121.604 69.7858 120.416 67.4434 118.27 67.597C116.775 67.7122 116.162 69.1714 115.779 70.8994C115.165 73.6642 113.824 81.1138 113.441 84.0706C113.364 84.5698 113.288 84.9922 113.288 85.4914C113.288 86.7202 113.709 87.5266 115.089 87.5266C115.319 87.5266 115.395 87.6418 115.357 87.8722C115.319 88.1794 115.204 88.4866 115.165 88.7938C115.127 89.0626 114.936 89.1778 114.706 89.2162C113.326 89.101 111.831 89.0242 110.413 89.0242C109.034 89.0242 107.463 89.101 106.045 89.2162C105.93 89.2162 105.776 89.1394 105.815 88.909C105.853 88.6018 105.968 88.2562 106.006 87.949C106.045 87.6418 106.198 87.5266 106.505 87.5266C108.152 87.5266 108.842 86.029 109.225 84.1858C109.877 81.3058 111.18 73.741 111.563 71.0146V71.053C111.64 70.5538 111.678 70.1314 111.678 69.709C111.678 68.365 111.218 67.597 109.724 67.597C107.731 67.597 105.661 69.9394 104.665 72.1282C104.473 72.5506 103.937 72.6658 103.515 72.6658C103.017 72.6658 102.596 72.5122 102.672 72.205L105.087 66.253C105.24 65.9074 105.47 65.7538 105.815 65.7922ZM122.299 89.2162C122.184 89.2162 121.954 89.1778 122.031 88.909L122.261 87.8722C122.338 87.6034 122.453 87.5266 122.759 87.5266C124.407 87.5266 125.059 85.837 125.48 84.0706C126.093 81.3058 127.358 73.7794 127.741 71.053C127.818 70.5922 127.856 70.093 127.856 69.6706C127.856 68.4034 127.473 67.5586 126.093 67.5586C125.978 67.5586 125.787 67.5202 125.825 67.2514L126.017 66.2146C126.055 65.9458 126.285 65.8306 126.515 65.7922C129.006 65.9074 131.382 65.9458 133.796 65.9458C136.172 65.9458 138.586 65.9074 141.116 65.7922C141.499 65.7538 141.729 65.9074 141.844 66.2146L143.76 72.205C143.798 72.5122 143.53 72.6658 143.147 72.6658C142.764 72.6658 142.38 72.589 142.15 72.1666C140.924 69.9394 138.855 67.5586 135.636 67.5586H134.678C132.991 67.5586 132.378 69.0946 131.957 70.8994C131.688 72.1282 131.229 74.3938 131.075 75.3922C130.922 76.1986 131.19 76.621 132.072 76.621H134.333C135.214 76.621 136.096 75.8914 136.287 75.1234L136.44 74.509C136.517 74.2402 136.67 74.0482 136.939 74.0482H138.357C138.472 74.0482 138.625 74.125 138.625 74.317C138.088 76.237 137.552 79.0402 137.475 80.8834C137.398 81.1522 137.207 81.2674 136.977 81.2674H135.559C135.329 81.2674 135.252 81.1906 135.291 80.9602L135.406 80.269C135.559 79.3474 135.022 78.4642 133.796 78.4642H131.65C130.884 78.4642 130.5 78.8098 130.385 79.5394C130.27 80.077 129.811 82.957 129.696 83.917C129.427 85.8754 129.734 87.4114 132.915 87.4114H134.103C137.13 87.4114 140.119 84.1858 141.461 81.805C141.652 81.4594 141.997 81.1522 142.649 81.1522C143.109 81.1522 143.147 81.3826 143.07 81.5362L140.119 88.7554C139.966 89.0626 139.698 89.2162 139.353 89.2162C136.364 89.101 133.451 89.0242 130.539 89.0242C127.856 89.0242 125.135 89.101 122.299 89.2162Z" fill="#6D7084"/>
<path d="M71.574 27.5071C70.4243 27.5071 69.3513 27.3919 68.2783 27.1999C64.8676 27.1999 62.3766 31.0783 61.3802 36.1087L60.3455 42.4063C60.3072 42.5983 60.4605 42.7903 60.6521 42.7903H63.6412C64.5993 42.7903 65.4041 42.1375 65.5957 41.4079L65.8256 40.4479C65.9023 40.1407 66.0556 39.9871 66.3238 39.9871H67.8567C68.0483 39.9871 68.1633 40.0639 68.125 40.2559C67.5885 42.2527 66.8603 45.4783 66.7837 47.4367C66.7454 47.7439 66.5921 47.8591 66.2855 47.8591H64.7526C64.561 47.8591 64.4843 47.6671 64.4843 47.5519L64.7143 46.5151C64.9059 45.4783 64.4077 44.7871 63.1047 44.7871H60.1922C60.0389 44.7871 59.924 44.9023 59.8856 45.0559C59.7323 46.0927 59.5024 47.3599 59.3491 48.3583C56.7049 61.4911 46.9326 65.9839 40.1112 65.9839C33.7113 65.9839 28.8443 61.2607 29.1509 55.3855C29.4192 49.8943 34.5927 46.3999 39.5363 46.3999C42.5638 46.3999 45.5147 47.7823 45.5913 50.1631C45.4763 51.8527 44.365 52.8511 43.2536 52.8511C42.8321 52.8511 42.3339 52.6591 41.989 52.3135C42.4105 51.8911 42.5638 51.2767 42.5638 50.6623C42.6022 49.1263 41.5291 47.5135 39.2681 47.5135C36.164 47.5135 33.2514 50.7391 32.9449 55.0399C32.9832 60.3775 36.9687 63.9871 41.6824 63.9871C47.4691 63.9871 52.7576 59.3023 54.9803 48.5887C55.7851 44.5951 56.7432 40.2175 57.548 36.2239C58.6976 30.9247 62.185 27.9295 65.9789 26.5855C62.4916 25.1647 60.6521 23.9743 58.8126 22.8223C55.7085 20.8639 52.6427 18.9439 49.0787 18.9439C43.1387 18.9439 38.5016 23.8975 38.5016 29.1967C38.5016 32.7679 40.6094 35.1871 43.4453 35.1871C45.8596 35.1871 47.2009 33.3823 47.2009 31.7695C47.2009 31.3471 47.0859 30.8863 46.8176 30.5407C47.2775 30.1183 47.8523 29.8879 48.3505 29.8879C49.3469 29.8879 50.2283 30.6559 50.2283 32.0383C50.2283 34.9183 46.5877 36.4543 43.3303 36.4543C38.9232 36.4543 34.6694 33.6127 34.6694 28.4671C34.6694 21.4015 42.7554 17.3311 50.305 17.3311C56.0151 17.3311 59.924 19.7503 63.5646 21.9775C66.8603 24.0127 70.0028 25.8943 74.18 25.8943C78.5487 25.8943 79.6601 23.7439 79.6601 22.0927C79.6601 20.5951 78.7403 19.6351 77.7056 19.6351H77.629C77.9356 18.4831 78.932 17.5615 80.2349 17.5615C81.2313 17.5615 83.0708 18.0991 83.0708 20.2879C83.0708 24.1279 77.9739 27.5071 71.574 27.5071Z" fill="#6D7084"/>
<path d="M157.531 59.5328C154.274 59.5328 151.016 62.0288 151.246 66.0224C151.438 68.9792 153.891 71.2832 156.42 73.5104C158.949 75.8144 162.207 79.0784 162.207 82.6496C162.207 87.2576 157.915 89.9456 153.316 89.9456C149.867 89.9456 145.498 88.5248 145.498 85.0304C145.498 82.88 147.146 81.728 148.602 81.728C149.292 81.728 149.982 81.9968 150.403 82.7648C149.484 83.1488 149.139 83.9168 149.139 84.8384C149.139 86.4128 150.518 88.1024 153.316 88.1024C156.19 88.1024 158.144 86.2976 158.144 83.84C158.144 81.344 155.922 79.3088 153.469 77.1584C150.748 74.7008 147.567 71.4368 147.069 67.4432C147.108 62.4512 152.128 58.0352 157.608 58.0352C162.322 58.0352 166.652 60.5312 166.652 64.6784C166.652 68.2112 163.51 70.4 160.559 70.4C158.221 70.4 155.385 69.0176 155.385 66.4064C155.385 65.1776 156.152 64.1408 157.416 64.1408C157.838 64.1408 158.259 64.256 158.566 64.64C158.336 64.9856 158.221 65.4464 158.221 65.9072C158.221 67.2512 159.179 68.5184 160.597 68.5184C162.053 68.5184 163.356 67.1744 163.356 64.9088C163.356 61.2224 159.869 59.5328 157.531 59.5328Z" fill="#6D7084"/>
</g>
<defs>
<clipPath id="clip0_740_711">
<rect width="198" height="112" fill="white"/>
</clipPath>
</defs>
</svg>
