<svg width="124" height="70" viewBox="0 0 124 70" fill="none" xmlns="http://www.w3.org/2000/svg">
<path d="M45.16 32.416C45.52 30.664 46.144 26.704 46.336 25.336V25.36C46.384 25.072 46.408 24.76 46.408 24.496C46.408 23.704 46.168 23.176 45.304 23.176C45.232 23.176 45.112 23.152 45.136 22.984C45.16 22.792 45.232 22.576 45.256 22.384C45.28 22.216 45.4 22.144 45.544 22.12C46.36 22.216 47.296 22.24 48.184 22.24C49.072 22.24 50.032 22.216 50.968 22.12C51.064 22.12 51.136 22.192 51.112 22.336C51.088 22.528 51.016 22.72 50.992 22.912C50.968 23.104 50.872 23.176 50.68 23.176C49.624 23.176 49.24 24.136 48.976 25.264C48.664 26.632 47.968 30.592 47.704 32.344L47.536 33.544C47.368 34.744 47.416 35.704 49.408 35.704H49.72C51.448 35.704 53.176 34.048 54.088 32.224C54.208 31.984 54.52 31.84 54.832 31.84C55.072 31.84 55.336 31.864 55.264 32.056L53.44 36.544C53.344 36.736 53.176 36.832 52.96 36.832C51.256 36.76 49.504 36.712 47.752 36.712C46.192 36.712 44.44 36.76 42.904 36.832C42.832 36.832 42.736 36.76 42.736 36.64L42.88 35.992C42.904 35.8 43 35.704 43.192 35.704C44.272 35.704 44.656 34.84 44.896 33.616L45.16 32.416ZM67.9086 32.248C67.5006 34.096 65.8446 37.168 61.7646 37.168C58.8366 37.168 56.7966 36.04 56.7966 33.16C56.7966 32.728 56.8446 32.224 56.9406 31.672C57.0126 31.24 57.0846 30.784 57.1806 30.328C57.4926 28.72 57.8286 26.944 58.0686 25.336V25.36C58.1166 25.072 58.1406 24.76 58.1406 24.496C58.1406 23.704 57.9006 23.176 57.0366 23.176C56.9646 23.176 56.8446 23.152 56.8686 22.984C56.8926 22.792 56.9646 22.576 56.9886 22.384C57.0126 22.216 57.1326 22.144 57.2766 22.12C58.0926 22.216 59.0286 22.24 59.9166 22.24C60.8046 22.24 61.7646 22.216 62.7006 22.12C62.7966 22.12 62.8686 22.192 62.8446 22.336C62.8206 22.528 62.7486 22.72 62.7246 22.912C62.7006 23.104 62.6046 23.176 62.4126 23.176C61.3566 23.176 60.9726 24.136 60.7086 25.264C60.5406 26.032 60.2046 27.976 59.8926 29.704L59.5566 31.528C59.4846 31.984 59.4126 32.512 59.4126 33.04C59.4126 34.504 59.9406 35.848 62.1486 35.848C65.1726 35.848 66.3006 33.304 66.8046 30.928C67.1886 29.008 67.5966 26.536 67.7406 25.36C67.7886 25.12 67.8126 24.808 67.8126 24.592C67.8126 23.728 67.4526 23.176 66.1326 23.176C66.0606 23.176 65.9406 23.152 65.9646 22.984C65.9886 22.792 66.0606 22.576 66.0846 22.384C66.1086 22.216 66.2286 22.144 66.3726 22.12C67.1886 22.216 68.1246 22.24 69.0126 22.24C69.9006 22.24 70.8606 22.216 71.7966 22.12C71.8926 22.12 71.9646 22.192 71.9406 22.336C71.9166 22.528 71.8446 22.72 71.8206 22.912C71.7966 23.104 71.7006 23.176 71.5086 23.176C70.1646 23.176 69.4926 24.088 69.2286 25.264C68.9886 26.296 68.7966 27.424 68.6046 28.576C68.4126 29.776 68.1966 31 67.9086 32.248ZM70.5122 36.76C70.4402 36.76 70.3442 36.736 70.3682 36.568C70.3922 36.376 70.4642 36.16 70.4882 35.968C70.5122 35.776 70.6082 35.704 70.8003 35.704C71.8323 35.704 72.2402 34.744 72.5043 33.616C72.8883 31.888 73.7283 27.064 73.9683 25.336C74.0163 25.072 74.0403 24.76 74.0403 24.496C74.0403 23.704 73.8003 23.176 72.9363 23.176C72.8643 23.176 72.7443 23.152 72.7683 22.984C72.7923 22.792 72.8643 22.576 72.8883 22.384C72.9123 22.216 73.0323 22.144 73.1763 22.12C73.9683 22.216 74.8803 22.24 75.7683 22.24C76.6562 22.24 77.5923 22.216 78.5043 22.12C78.6003 22.12 78.6723 22.192 78.6483 22.336C78.6243 22.528 78.5523 22.72 78.5283 22.912C78.5043 23.104 78.4083 23.176 78.2163 23.176C77.1603 23.176 76.7763 24.136 76.5123 25.264C76.1283 26.992 75.2883 31.816 75.0483 33.544V33.52C75.0003 33.832 74.9763 34.144 74.9763 34.432C74.9763 35.2 75.2163 35.704 76.0803 35.704C76.2243 35.704 76.2723 35.776 76.2483 35.92C76.2243 36.112 76.1523 36.304 76.1283 36.496C76.1043 36.664 75.9843 36.736 75.8403 36.76C75.0003 36.688 74.0883 36.64 73.2003 36.64C72.2883 36.64 71.4003 36.688 70.5122 36.76ZM84.2545 36.784C83.0785 36.712 81.9505 36.64 80.7265 36.64C79.9105 36.64 78.9025 36.688 77.9425 36.76C77.8705 36.76 77.7745 36.712 77.7985 36.568C77.8225 36.376 77.8945 36.16 77.9185 35.968C77.9425 35.776 78.0385 35.704 78.2305 35.704C79.2625 35.704 79.6945 34.768 79.9345 33.616C80.3425 31.816 81.1585 27.04 81.3985 25.336V25.36C81.4465 25.072 81.4705 24.76 81.4705 24.496C81.4705 23.704 81.2305 23.176 80.3665 23.176C80.2945 23.176 80.1745 23.152 80.1985 22.984C80.2225 22.792 80.2945 22.576 80.3185 22.384C80.3425 22.216 80.4625 22.144 80.6065 22.12C81.3025 22.192 82.0465 22.216 82.7905 22.216C83.3665 22.216 84.1105 22.192 84.7105 22.168C85.4305 22.144 86.1745 22.12 86.9425 22.12C91.0945 22.12 93.1585 25.192 93.1585 28.36C93.1585 32.392 90.1825 37.144 84.2545 36.784ZM82.5745 33.544V33.52C82.5265 33.808 82.5025 34.072 82.5025 34.336C82.5025 35.152 82.8145 35.68 84.2305 35.704H84.3745C88.1665 35.896 90.4225 31.768 90.4225 28.216C90.4225 25.648 89.1745 23.176 86.4385 23.176C84.9745 23.176 84.3025 24.04 84.0385 25.264C83.6545 26.968 82.8145 31.792 82.5745 33.544Z" fill="#6D7084"/>
<path d="M45.336 55.4C45.264 55.64 45.048 55.64 43.8 55.664H43.32C43.104 55.664 42.984 55.616 42.888 55.424C42.768 54.968 40.08 46.952 38.352 43.088C37.752 45.68 36.936 50.792 36.696 52.544C36.672 52.808 36.624 53.408 36.624 53.336C36.624 54.152 36.96 54.704 38.304 54.704C38.448 54.704 38.496 54.776 38.472 54.92C38.448 55.112 38.376 55.304 38.352 55.496C38.328 55.664 38.208 55.736 38.064 55.76C37.2 55.688 36.264 55.64 35.376 55.64C34.512 55.64 33.528 55.688 32.64 55.76C32.568 55.76 32.472 55.712 32.496 55.568C32.52 55.376 32.592 55.16 32.616 54.968C32.64 54.776 32.736 54.704 32.928 54.704C34.272 54.704 34.944 53.84 35.208 52.616C35.592 50.912 36.408 46.088 36.648 44.336C36.672 44.096 36.696 43.856 36.696 43.616C36.696 42.752 36.384 42.176 35.04 42.176C34.968 42.176 34.848 42.152 34.872 41.984C34.896 41.792 34.968 41.576 34.992 41.384C35.016 41.216 35.136 41.144 35.28 41.12C35.712 41.168 36.816 41.24 37.968 41.24C38.736 41.24 39.576 41.216 40.248 41.12C40.536 41.12 40.68 41.192 40.752 41.384L44.496 51.632C44.856 49.712 45.576 45.56 45.744 44.336V44.36C45.792 44.096 45.816 43.832 45.816 43.592C45.816 42.728 45.456 42.176 44.136 42.176C44.064 42.176 43.944 42.152 43.968 41.984C43.992 41.792 44.064 41.576 44.088 41.384C44.112 41.216 44.232 41.144 44.376 41.12C45.192 41.216 46.128 41.24 47.016 41.24C47.904 41.24 48.864 41.216 49.8 41.12C49.896 41.12 49.968 41.192 49.944 41.336C49.92 41.528 49.848 41.72 49.824 41.912C49.8 42.104 49.704 42.176 49.512 42.176C48.144 42.176 47.472 43.04 47.232 44.264C46.488 47.408 45.744 52.28 45.336 55.4ZM48.9923 49.736C48.9923 45.2 52.4963 40.88 57.6323 40.88C61.1603 40.88 63.8963 43.136 63.8963 47.312C63.8963 51.8 60.4403 56.168 55.3523 56.168C51.6562 56.168 48.9923 53.888 48.9923 49.736ZM57.5123 41.936C53.7443 41.936 51.8242 46.976 51.8242 50.312C51.8242 52.904 52.8563 55.064 55.4003 55.064C59.1443 55.064 61.0403 50.048 61.0403 46.664C61.0403 44.048 59.9843 41.936 57.5123 41.936ZM66.2678 41.12H66.2918C66.4838 41.12 66.6998 41.12 66.9398 41.144C68.3078 41.216 70.0117 41.312 71.3798 41.312C72.9158 41.312 74.8118 41.216 76.6598 41.12C76.8518 41.096 77.0198 41.24 77.0918 41.384L78.1238 45.128C78.1478 45.32 77.8358 45.44 77.5238 45.44C77.2358 45.44 77.0198 45.344 76.8998 45.104C76.1558 43.616 75.4118 42.152 74.0678 42.248C73.1318 42.32 72.7478 43.232 72.5078 44.312C72.1238 46.04 71.2838 50.696 71.0438 52.544C70.9958 52.856 70.9478 53.12 70.9478 53.432C70.9478 54.2 71.2118 54.704 72.0758 54.704C72.2198 54.704 72.2678 54.776 72.2438 54.92C72.2198 55.112 72.1478 55.304 72.1238 55.496C72.0998 55.664 71.9798 55.736 71.8358 55.76C70.9718 55.688 70.0358 55.64 69.1478 55.64C68.2838 55.64 67.2998 55.688 66.4118 55.76C66.3398 55.76 66.2438 55.712 66.2678 55.568C66.2918 55.376 66.3638 55.16 66.3878 54.968C66.4118 54.776 66.5078 54.704 66.6998 54.704C67.7318 54.704 68.1638 53.768 68.4038 52.616C68.8118 50.816 69.6278 46.088 69.8678 44.384V44.408C69.9158 44.096 69.9398 43.832 69.9398 43.568C69.9398 42.728 69.6518 42.248 68.7158 42.248C67.4678 42.248 66.1718 43.712 65.5478 45.08C65.4277 45.344 65.0918 45.416 64.8278 45.416C64.5158 45.416 64.2518 45.32 64.2998 45.128L65.8118 41.408C65.9078 41.192 66.0518 41.096 66.2678 41.12ZM76.5915 55.76C76.5195 55.76 76.3755 55.736 76.4235 55.568L76.5675 54.92C76.6155 54.752 76.6875 54.704 76.8795 54.704C77.9115 54.704 78.3195 53.648 78.5835 52.544C78.9675 50.816 79.7595 46.112 79.9995 44.408C80.0475 44.12 80.0715 43.808 80.0715 43.544C80.0715 42.752 79.8315 42.224 78.9675 42.224C78.8955 42.224 78.7755 42.2 78.7995 42.032L78.9195 41.384C78.9435 41.216 79.0875 41.144 79.2315 41.12C80.7915 41.192 82.2795 41.216 83.7915 41.216C85.2795 41.216 86.7915 41.192 88.3755 41.12C88.6155 41.096 88.7595 41.192 88.8315 41.384L90.0315 45.128C90.0555 45.32 89.8875 45.416 89.6475 45.416C89.4075 45.416 89.1675 45.368 89.0235 45.104C88.2555 43.712 86.9595 42.224 84.9435 42.224H84.3435C83.2875 42.224 82.9035 43.184 82.6395 44.312C82.4715 45.08 82.1835 46.496 82.0875 47.12C81.9915 47.624 82.1595 47.888 82.7115 47.888H84.1275C84.6795 47.888 85.2315 47.432 85.3515 46.952L85.4475 46.568C85.4955 46.4 85.5915 46.28 85.7595 46.28H86.6475C86.7195 46.28 86.8155 46.328 86.8155 46.448C86.4795 47.648 86.1435 49.4 86.0955 50.552C86.0475 50.72 85.9275 50.792 85.7835 50.792H84.8955C84.7515 50.792 84.7035 50.744 84.7275 50.6L84.7995 50.168C84.8955 49.592 84.5595 49.04 83.7915 49.04H82.4475C81.9675 49.04 81.7275 49.256 81.6555 49.712C81.5835 50.048 81.2955 51.848 81.2235 52.448C81.0555 53.672 81.2475 54.632 83.2395 54.632H83.9835C85.8795 54.632 87.7515 52.616 88.5915 51.128C88.7115 50.912 88.9275 50.72 89.3355 50.72C89.6235 50.72 89.6475 50.864 89.5995 50.96L87.7515 55.472C87.6555 55.664 87.4875 55.76 87.2715 55.76C85.3995 55.688 83.5755 55.64 81.7515 55.64C80.0715 55.64 78.3675 55.688 76.5915 55.76Z" fill="#6D7084"/>
<path d="M44.824 17.192C44.104 17.192 43.432 17.12 42.76 17C40.624 17 39.064 19.424 38.44 22.568L37.792 26.504C37.768 26.624 37.864 26.744 37.984 26.744H39.856C40.456 26.744 40.96 26.336 41.08 25.88L41.224 25.28C41.272 25.088 41.368 24.992 41.536 24.992H42.496C42.616 24.992 42.688 25.04 42.664 25.16C42.328 26.408 41.872 28.424 41.824 29.648C41.8 29.84 41.704 29.912 41.512 29.912H40.552C40.432 29.912 40.384 29.792 40.384 29.72L40.528 29.072C40.648 28.424 40.336 27.992 39.52 27.992H37.696C37.6 27.992 37.528 28.064 37.504 28.16C37.408 28.808 37.264 29.6 37.168 30.224C35.512 38.432 29.392 41.24 25.12 41.24C21.112 41.24 18.064 38.288 18.256 34.616C18.424 31.184 21.664 29 24.76 29C26.656 29 28.504 29.864 28.552 31.352C28.48 32.408 27.784 33.032 27.088 33.032C26.824 33.032 26.512 32.912 26.296 32.696C26.56 32.432 26.656 32.048 26.656 31.664C26.68 30.704 26.008 29.696 24.592 29.696C22.648 29.696 20.824 31.712 20.632 34.4C20.656 37.736 23.152 39.992 26.104 39.992C29.728 39.992 33.04 37.064 34.432 30.368C34.936 27.872 35.536 25.136 36.04 22.64C36.76 19.328 38.944 17.456 41.32 16.616C39.136 15.728 37.984 14.984 36.832 14.264C34.888 13.04 32.968 11.84 30.736 11.84C27.016 11.84 24.112 14.936 24.112 18.248C24.112 20.48 25.432 21.992 27.208 21.992C28.72 21.992 29.56 20.864 29.56 19.856C29.56 19.592 29.488 19.304 29.32 19.088C29.608 18.824 29.968 18.68 30.28 18.68C30.904 18.68 31.456 19.16 31.456 20.024C31.456 21.824 29.176 22.784 27.136 22.784C24.376 22.784 21.712 21.008 21.712 17.792C21.712 13.376 26.776 10.832 31.504 10.832C35.08 10.832 37.528 12.344 39.808 13.736C41.872 15.008 43.84 16.184 46.456 16.184C49.192 16.184 49.888 14.84 49.888 13.808C49.888 12.872 49.312 12.272 48.664 12.272H48.616C48.808 11.552 49.432 10.976 50.248 10.976C50.872 10.976 52.024 11.312 52.024 12.68C52.024 15.08 48.832 17.192 44.824 17.192Z" fill="#6D7084"/>
<path d="M98.656 37.208C96.616 37.208 94.576 38.768 94.72 41.264C94.84 43.112 96.376 44.552 97.96 45.944C99.544 47.384 101.584 49.424 101.584 51.656C101.584 54.536 98.896 56.216 96.016 56.216C93.856 56.216 91.12 55.328 91.12 53.144C91.12 51.8 92.152 51.08 93.064 51.08C93.496 51.08 93.928 51.248 94.192 51.728C93.616 51.968 93.4 52.448 93.4 53.024C93.4 54.008 94.264 55.064 96.016 55.064C97.816 55.064 99.04 53.936 99.04 52.4C99.04 50.84 97.648 49.568 96.112 48.224C94.408 46.688 92.416 44.648 92.104 42.152C92.128 39.032 95.272 36.272 98.704 36.272C101.656 36.272 104.368 37.832 104.368 40.424C104.368 42.632 102.4 44 100.552 44C99.088 44 97.312 43.136 97.312 41.504C97.312 40.736 97.792 40.088 98.584 40.088C98.848 40.088 99.112 40.16 99.304 40.4C99.16 40.616 99.088 40.904 99.088 41.192C99.088 42.032 99.688 42.824 100.576 42.824C101.488 42.824 102.304 41.984 102.304 40.568C102.304 38.264 100.12 37.208 98.656 37.208Z" fill="#6D7084"/>
<path d="M62 0.75C79.0159 0.75 94.3839 4.64511 105.472 10.9043C116.582 17.1765 123.25 25.7249 123.25 35C123.25 44.2751 116.582 52.8235 105.472 59.0957C94.3839 65.3549 79.0159 69.25 62 69.25C44.9841 69.25 29.6161 65.3549 18.5283 59.0957C7.41751 52.8235 0.75 44.2751 0.75 35C0.75 25.7249 7.41751 17.1765 18.5283 10.9043C29.6161 4.64511 44.9841 0.75 62 0.75Z" stroke="#6D7084" stroke-width="1.5"/>
</svg>
